<svg xmlns="http://www.w3.org/2000/svg" id="Layer_1" data-name="Layer 1" viewBox="0 0 473 473"><defs><style>.cls-1{fill:#043263;}</style></defs><g id="infographic"><path class="cls-1" d="M220,382.53,88.53,251.05l161-161A174.3,174.3,0,0,1,417.86,45l6.49,1.74,1.75,6.5A174.78,174.78,0,0,1,381,221.56ZM121.47,251.05,220,349.59,364.52,205.1A151.46,151.46,0,0,0,405.21,65.85,151,151,0,0,0,266,106.55Z"></path><path class="cls-1" d="M109.65,250.54H39.23L94,195.74l85.25-14.83ZM73.3,236.42h30.51l34-34-36.93,6.43Z"></path><path class="cls-1" d="M220.53,431.84V361.41l69.62-69.62L275.32,377Zm14.12-64.58v30.5l27.54-27.54,6.42-36.93Z"></path><path class="cls-1" d="M262.84,265.75a57.53,57.53,0,1,1,40.68-16.85h0A57.08,57.08,0,0,1,262.84,265.75Zm0-91.75a34.23,34.23,0,1,0,24.21,58.43h0A34.22,34.22,0,0,0,262.84,174Z"></path><path class="cls-1" d="M91.68,405.11A25.75,25.75,0,0,1,66,379.32a122.56,122.56,0,0,1,64.2-107.81l7.64-4.15,65.9,65.9-4.13,7.64a121.56,121.56,0,0,1-21.12,28.29h0A122,122,0,0,1,91.77,405.1Zm42.2-108.71a99.31,99.31,0,0,0-44.64,82.94A2.44,2.44,0,0,0,90,381.1a2.4,2.4,0,0,0,1.72.72h0A98.79,98.79,0,0,0,162,352.72h0a100.21,100.21,0,0,0,12.7-15.54Z"></path></g></svg>
