<svg xmlns="http://www.w3.org/2000/svg" id="Layer_1" data-name="Layer 1" viewBox="0 0 473 473"><defs><style>.cls-1{fill:#043263;}</style></defs><g id="infographic"><path class="cls-1" d="M232.55,434.48C124.2,434.48,36.07,346.32,36.07,238S124.2,41.48,232.55,41.48A194.62,194.62,0,0,1,375.44,103.1l-17.82,16.81A170.45,170.45,0,0,0,232.55,66c-94.83,0-172,77.15-172,172s77.15,172,172,172,172-77.16,172-172a172.12,172.12,0,0,0-2.41-28.85l24.16-4.1A197.7,197.7,0,0,1,429,238C429,346.32,340.9,434.48,232.55,434.48Z"></path><path class="cls-1" d="M230.63,371c-73.33,0-133-59.67-133-133s59.66-133,133-133a131.85,131.85,0,0,1,96,41.06L309,163a108.43,108.43,0,1,0,30.16,75,105.62,105.62,0,0,0-1.58-18.36l-.18-2.12h12.32l12-2.1A131.46,131.46,0,0,1,363.65,238C363.65,311.31,304,371,230.63,371Z"></path><path class="cls-1" d="M230.63,293a55,55,0,1,1,29.08-101.75l-13,20.79a30.51,30.51,0,1,0,14.46,26,15.66,15.66,0,0,0-.08-1.95l24.39-2.41c.13,1.43.19,2.88.19,4.36A55.1,55.1,0,0,1,230.63,293Z"></path><path class="cls-1" d="M384.38,170.76l-37,18.34L239.2,242.7a8.77,8.77,0,0,1-11.74-3.95h0A8.77,8.77,0,0,1,231.41,227l106.18-52.61,37.49-18.59-1.51,3.38-2.85,6.37,6.64,2.55Z"></path><polygon class="cls-1" points="441 166.22 398.25 185.22 377.06 174.26 370.96 171.1 365.03 168.04 366.48 162.53 367.29 159.51 374.55 131.87 417.28 112.88 404.77 140.92 403.26 144.31 400.41 150.67 407.05 153.22 414.07 155.91 441 166.22"></polygon></g></svg>
