<svg xmlns="http://www.w3.org/2000/svg" id="Layer_1" data-name="Layer 1" viewBox="0 0 473 473"><defs><style>.cls-1{fill:#043263;}</style></defs><g id="infographic"><path class="cls-1" d="M89.19,238.57a146.68,146.68,0,0,1,2-24.13l2.33-13.93,34.27.17A114.38,114.38,0,0,1,133.11,188L109,163.64l8.32-11.4a147.38,147.38,0,0,1,33.17-32.92L162,111.06l24,24.33A114.76,114.76,0,0,1,199.1,130l.18-34.27,14-2.18a147.25,147.25,0,0,1,46.8.23L274,96.11l-.18,34.28a118.59,118.59,0,0,1,11.72,4.87l24.09-24.36,11.5,8.22A147.32,147.32,0,0,1,354.42,152l8.34,11.41L338.7,187.75a114.16,114.16,0,0,1,5.83,14l34.26.17,2.19,14a148.19,148.19,0,0,1-.24,46.81l-2.32,13.92-34.27-.17a112.68,112.68,0,0,1-5.59,13.21L362.64,314l-8.43,11.42A147.38,147.38,0,0,1,320.9,358.2l-11.51,8.17L285.31,342a115.74,115.74,0,0,1-12.55,5.11l-.18,34.28-13.95,2.17a147.18,147.18,0,0,1-46.79-.23L197.9,381l.17-34.28a115,115,0,0,1-11.71-4.86l-24.08,24.35L150.77,358a146.53,146.53,0,0,1-33.25-32.88l-8.35-11.4,24.06-24.35a112.56,112.56,0,0,1-5.82-14l-34.28-.17L91,261.2A146.57,146.57,0,0,1,89.19,238.57Zm18.36-21.39a130.88,130.88,0,0,0-.2,41.48h0l32.5.16,1.68,6a97.22,97.22,0,0,0,9.11,21.93l3.09,5.46-22.82,23.08a130.28,130.28,0,0,0,29.5,29.18l22.85-23.1,5.49,3a97.35,97.35,0,0,0,20,8.29l6,1.75L214.57,367h0a130.07,130.07,0,0,0,41.49.21h0l.16-32.5,6-1.68A97.94,97.94,0,0,0,283,324.59l5.49-3,22.84,23.11h0a130.56,130.56,0,0,0,29.56-29.09h0L318,292.5l3.13-5.47a97.29,97.29,0,0,0,9-21.2l1.74-6,32.51.17a131.83,131.83,0,0,0,.21-41.49l-32.5-.17-1.68-6a97.37,97.37,0,0,0-9.12-21.92l-3.1-5.46L341,161.8a130,130,0,0,0-29.5-29.17l-22.84,23.09-5.49-3a98.47,98.47,0,0,0-20-8.29l-6-1.74.18-32.5a130.36,130.36,0,0,0-41.49-.2l-.18,32.48-6,1.69a97.55,97.55,0,0,0-21.18,8.7l-5.5,3L160.17,132.8A130.67,130.67,0,0,0,130.74,162l22.85,23.13-3.08,5.45a96.89,96.89,0,0,0-8.71,20.72l-1.75,6Z"></path><path class="cls-1" d="M163.36,238.57A72.61,72.61,0,1,1,236,311.18,72.61,72.61,0,0,1,163.36,238.57Zm128.62,0a56,56,0,1,0-56,56,56,56,0,0,0,56-56Z"></path><path class="cls-1" d="M383.08,360.46c22.33-33.16,35.19-71.38,35.75-109.74.08-2.39.12-4.78,0-7.17s0-4.78-.28-7.16l-1.22-14.23a53.6,53.6,0,0,0-1.09-7l-1.27-7c-.46-2.32-.75-4.68-1.33-7l-2-6.83c-2.21-9.21-5.92-17.93-9.38-26.68L396,155a48.18,48.18,0,0,0-3.51-6.12l-3.73-6a191.82,191.82,0,0,0-36.87-42.44A202.38,202.38,0,0,0,304,70.75l-13.2-5.18c-4.48-1.49-9.08-2.65-13.62-4-4.52-1.51-9.23-2.14-13.9-3.07a99,99,0,0,0-14.12-2.11c-4.75-.41-9.51-.94-14.29-1.27-4.79-.16-9.59-.2-14.39-.06a185.21,185.21,0,0,0-28.77,3.13l-37.88,7.12,33.9-17,15.74-7.89c5.27-2.6,10.47-5.31,15.78-7.83,10.56-5.14,21.15-10.26,31.88-15.11-9.5,7-19.14,13.68-28.81,20.36-4.81,3.39-9.72,6.6-14.57,9.9l-14.6,9.85-4-9.86C208.84,42,229.6,38.87,250.36,40c20.69,1,41.58,4.63,61.09,12.4a202.52,202.52,0,0,1,54.11,31.7,197.23,197.23,0,0,1,41.08,47.49l4,6.78a60,60,0,0,1,3.75,6.92l6.66,14.27c3.51,9.89,7.29,19.7,9.28,30l1.76,7.65c.51,2.56.72,5.18,1.09,7.76.57,5.19,1.55,10.34,1.68,15.55l.29,15.61a77.69,77.69,0,0,1-.28,7.78c-.12,2.59-.36,5.17-.66,7.75C430.07,293,411.58,332.27,383.08,360.46Z"></path><path class="cls-1" d="M81.62,126C61.17,160.6,51,199.82,52.73,238.34A211,211,0,0,0,63.5,294.47l5.16,13.28c1.89,4.34,4.24,8.49,6.3,12.75s4.68,8.23,7.13,12.28l3.75,6c1.31,2,2.86,3.78,4.26,5.68l4.27,5.67a46.32,46.32,0,0,0,4.5,5.48l9.58,10.46,10.48,9.58a46.22,46.22,0,0,0,5.47,4.5l5.67,4.27c1.91,1.38,3.72,2.93,5.69,4.24l6,3.75c4,2.45,7.93,5.21,12.27,7.12s8.41,4.4,12.76,6.29L180.1,411a212.11,212.11,0,0,0,56.11,10.73,195.08,195.08,0,0,0,57.63-6.11l28.55-7-24.18,15.5c-8.58,5.5-17.08,11.13-25.76,16.49s-17.32,10.82-26.12,16c7.53-6.92,15.18-13.67,22.89-20.37s15.49-13.26,23.24-19.89l4.38,8.46a177.23,177.23,0,0,1-29.67,8.85,180.88,180.88,0,0,1-30.94,3.85,204.57,204.57,0,0,1-62.14-7.94,193.36,193.36,0,0,1-56.5-28l-6.37-4.73a55.81,55.81,0,0,1-6.16-5L93.3,381.25,82.66,369.48a55.81,55.81,0,0,1-5-6.16L73,357c-12.2-17.3-22-36.3-28-56.55a204.84,204.84,0,0,1-7.92-62.13A181.88,181.88,0,0,1,41,207.4a176.11,176.11,0,0,1,8.86-29.65A172.12,172.12,0,0,1,81.62,126Z"></path></g></svg>
