<svg xmlns="http://www.w3.org/2000/svg" id="Layer_1" data-name="Layer 1" viewBox="0 0 473 473"><defs><style>.cls-1{fill:#043263;}</style></defs><g id="infographic"><path class="cls-1" d="M318.45,392.54H158V332A137.09,137.09,0,1,1,361.14,160.1h0A137.12,137.12,0,0,1,318.45,332Zm-136.8-23.63H294.82V319.38l5.35-3.49A113.48,113.48,0,0,0,340,170.59h0A112.82,112.82,0,0,0,238.23,107.4,113.43,113.43,0,0,0,176.3,315.88l5.36,3.5Z"></path><path class="cls-1" d="M274.69,390.76H201.77v-128a36.46,36.46,0,0,1,72.92,0ZM225.4,367.14h25.67V262.8a12.84,12.84,0,0,0-25.67-.72q0,.36,0,.72Z"></path><rect class="cls-1" x="188.89" y="405.35" width="92.88" height="14.32"></rect><rect class="cls-1" x="199.55" y="432.2" width="71.56" height="14.32"></rect><path class="cls-1" d="M405.3,138.3a30,30,0,0,1-6.62,12.13,30.87,30.87,0,0,1-9.16,7,30.24,30.24,0,0,1-11.09,3.06,29.47,29.47,0,0,1-13.67-2.14,29.55,29.55,0,0,1,6.61-12.15,30.42,30.42,0,0,1,9.17-6.95,31.11,31.11,0,0,1,11.11-3A29.89,29.89,0,0,1,405.3,138.3Z"></path><path class="cls-1" d="M111.22,283.58a29.45,29.45,0,0,1-6.5,12.07,30.07,30.07,0,0,1-9,6.91,29.7,29.7,0,0,1-11,3,29.21,29.21,0,0,1-13.54-2.21,29.57,29.57,0,0,1,40-19.77Z"></path><path class="cls-1" d="M424.56,219.89a29.58,29.58,0,0,1-11.2,8,30.28,30.28,0,0,1-11.23,2.25A29.91,29.91,0,0,1,390.88,228a29.39,29.39,0,0,1-11.28-7.91,29.47,29.47,0,0,1,11.2-8,30.1,30.1,0,0,1,11.2-2.22A30.66,30.66,0,0,1,413.28,212,29.63,29.63,0,0,1,424.56,219.89Z"></path><path class="cls-1" d="M96.86,221.54a29.58,29.58,0,0,1-11.2,8,30.13,30.13,0,0,1-22.48.15,29.41,29.41,0,0,1-11.28-7.92,29.47,29.47,0,0,1,11.2-8,30.25,30.25,0,0,1,11.23-2.22,30.72,30.72,0,0,1,11.25,2.14A29.8,29.8,0,0,1,96.86,221.54Z"></path><path class="cls-1" d="M406.12,301.67A29.54,29.54,0,0,1,392.61,304a30.27,30.27,0,0,1-11-2.87,29.9,29.9,0,0,1-9.13-6.8,29.21,29.21,0,0,1-6.6-12,29.34,29.34,0,0,1,13.5-2.33,29.85,29.85,0,0,1,11,2.89,30.37,30.37,0,0,1,9.12,6.82A29.39,29.39,0,0,1,406.12,301.67Z"></path><path class="cls-1" d="M111.06,159.6a29.84,29.84,0,0,1-13.62,2.26,31.07,31.07,0,0,1-11.14-2.93,30.36,30.36,0,0,1-9.24-6.85A29.68,29.68,0,0,1,70.34,140,29.48,29.48,0,0,1,84,137.71a30.36,30.36,0,0,1,11.12,3,30.83,30.83,0,0,1,9.23,6.87A29.92,29.92,0,0,1,111.06,159.6Z"></path><path class="cls-1" d="M175.48,93.82a29.45,29.45,0,0,1-12.07-6.5,30.2,30.2,0,0,1-6.91-9,29.62,29.62,0,0,1-.8-24.54,29.19,29.19,0,0,1,12.09,6.48,29.65,29.65,0,0,1,6.89,9.06,30.14,30.14,0,0,1,3,11A29.58,29.58,0,0,1,175.48,93.82Z"></path><path class="cls-1" d="M237.52,79.46a29.66,29.66,0,0,1-8-11.2A30.43,30.43,0,0,1,227.27,57a29.89,29.89,0,0,1,2.11-11.25,29.5,29.5,0,0,1,7.91-11.28,29.36,29.36,0,0,1,8,11.2,30.13,30.13,0,0,1,.09,22.48A29.74,29.74,0,0,1,237.52,79.46Z"></path><path class="cls-1" d="M299.46,93.66A29.85,29.85,0,0,1,297.21,80a30.65,30.65,0,0,1,2.92-11.14,30.29,30.29,0,0,1,6.87-9.2,29.57,29.57,0,0,1,12.08-6.72,29.65,29.65,0,0,1,2.28,13.64,30.36,30.36,0,0,1-3,11.12,30.86,30.86,0,0,1-6.88,9.23A29.78,29.78,0,0,1,299.46,93.66Z"></path></g></svg>
